<mxfile host="app.diagrams.net" modified="2024-05-19T08:57:44.333Z" agent="Mozilla/5.0 (Macintosh; Intel Mac OS X 10_15_7) AppleWebKit/537.36 (KHTML, like Gecko) Chrome/124.0.0.0 Safari/537.36" version="24.4.4" etag="2w5HZyLlK0zPo2j6jm5K" type="github">
  <diagram name="第 1 页" id="cPHC3Qk5hhpx17pVYy_x">
    <mxGraphModel>
      <root>
        <mxCell id="0" />
        <mxCell id="1" parent="0" />
      </root>
    </mxGraphModel>
  </diagram>
</mxfile>
